<?xml version="1.0" encoding="UTF-8"?>
<!DOCTYPE svg PUBLIC "-//W3C//DTD SVG 1.1//EN" "http://www.w3.org/Graphics/SVG/1.1/DTD/svg11.dtd">
<!-- Creator: CorelDRAW -->
<svg xmlns="http://www.w3.org/2000/svg" xml:space="preserve" width="249px" height="134px" style="shape-rendering:geometricPrecision; text-rendering:geometricPrecision; image-rendering:optimizeQuality; fill-rule:evenodd; clip-rule:evenodd"
viewBox="0 0 249 133.739"
 xmlns:xlink="http://www.w3.org/1999/xlink"
 version="1.1"
 enable-background="new 0 0 280 103">
 <defs>
  <style type="text/css">
   <![CDATA[
    .fil22 {fill:black}
    .fil3 {fill:#0071B9}
    .fil5 {fill:#1D2C5E}
    .fil18 {fill:#1E2D5F}
    .fil9 {fill:#21386E}
    .fil8 {fill:#312370}
    .fil19 {fill:#3466AF}
    .fil17 {fill:#3567B0}
    .fil16 {fill:#3C5AA6}
    .fil14 {fill:#7D7F68}
    .fil15 {fill:#C7A008}
    .fil13 {fill:#FFCB05}
    .fil23 {fill:white}
    .fil1 {fill:white;fill-opacity:0.619608}
    .fil4 {fill:url(#id0)}
    .fil21 {fill:url(#id1)}
    .fil20 {fill:url(#id2)}
    .fil6 {fill:url(#id3)}
    .fil7 {fill:url(#id4)}
    .fil2 {fill:url(#id5)}
    .fil12 {fill:url(#id6)}
    .fil10 {fill:url(#id7)}
    .fil11 {fill:url(#id8)}
    .fil0 {fill:url(#id9)}
   ]]>
  </style>
  <linearGradient id="id0" gradientUnits="userSpaceOnUse" x1="117.687" y1="4.28039" x2="137.593" y2="25.7185">
   <stop offset="0" style="stop-color:#0070B6"/>
   <stop offset="1" style="stop-color:#0070B6"/>
  </linearGradient>
  <linearGradient id="id1" gradientUnits="userSpaceOnUse" x1="8.25003" y1="47.0969" x2="244.466" y2="47.0969">
   <stop offset="0" style="stop-color:#3C5AA6"/>
   <stop offset="0.929412" style="stop-color:#2B73B9"/>
   <stop offset="1" style="stop-color:#2B73B9"/>
  </linearGradient>
  <linearGradient id="id2" gradientUnits="userSpaceOnUse" x1="67.3874" y1="54.3848" x2="81.5462" y2="54.3848">
   <stop offset="0" style="stop-color:#3C5AA6"/>
   <stop offset="0.929412" style="stop-color:#2B73B9"/>
   <stop offset="1" style="stop-color:#2B73B9"/>
  </linearGradient>
  <linearGradient id="id3" gradientUnits="userSpaceOnUse" xlink:href="#id0" x1="76.9051" y1="25.8368" x2="74.7299" y2="39.975">
  </linearGradient>
  <linearGradient id="id4" gradientUnits="userSpaceOnUse" x1="200.022" y1="24.6036" x2="198.72" y2="38.9221">
   <stop offset="0" style="stop-color:#125D9E"/>
   <stop offset="1" style="stop-color:#125D9E"/>
  </linearGradient>
  <linearGradient id="id5" gradientUnits="userSpaceOnUse" xlink:href="#id0" x1="18.4748" y1="33.4585" x2="6.35912" y2="55.2677">
  </linearGradient>
  <linearGradient id="id6" gradientUnits="userSpaceOnUse" x1="26.2297" y1="92.8514" x2="46.5897" y2="48.4301">
   <stop offset="0" style="stop-color:#105FA1"/>
   <stop offset="1" style="stop-color:#105FA1"/>
  </linearGradient>
  <linearGradient id="id7" gradientUnits="userSpaceOnUse" xlink:href="#id4" x1="155.805" y1="61.1322" x2="136.964" y2="30.6962">
  </linearGradient>
  <linearGradient id="id8" gradientUnits="userSpaceOnUse" x1="60.4418" y1="58.4797" x2="71.7855" y2="81.166">
   <stop offset="0" style="stop-color:#105FA1"/>
   <stop offset="1" style="stop-color:#105FA1"/>
  </linearGradient>
  <radialGradient id="id9" gradientUnits="userSpaceOnUse" cx="124.5" cy="133.724" r="211.859" fx="124.5" fy="133.724">
   <stop offset="0" style="stop-color:#488025"/>
   <stop offset="0.2" style="stop-color:#9EDA91"/>
   <stop offset="0.4" style="stop-color:#488025"/>
   <stop offset="0.6" style="stop-color:#488025"/>
   <stop offset="0.8" style="stop-color:#9EDA91"/>
   <stop offset="1" style="stop-color:#488025"/>
  </radialGradient>
 </defs>
 <g id="Capa_x0020_1">
  <metadata id="CorelCorpID_0Corel-Layer"/>
  <rect class="fil0" x="0.0742138" y="0.275315" width="248.852" height="133.448"/>
  <g id="_47838216">
   <path id="_47845096" class="fil1" d="M13.62 57.7898l4.26316 -2.58478 17.7965 38.6384 6.74856 -2.04427 9.0358 -3.00638 3.95988 -1.30675 -1.04425 -4.18734 -2.4653 -9.83076c1.31479,2.65543 3.27577,4.60377 3.27577,4.60377 1.77833,1.80532 3.95758,3.11896 6.38842,3.85648 4.67615,1.39808 9.95426,0.486512 14.4845,-2.51412 1.00576,-0.660554 2.31424,-1.66057 3.29185,-2.54859l0.560035 6.4246 15.7637 -2.4228 4.21089 -2.29183 0.00689273 -0.00114879 -0.0166574 -10.3494 28.9621 14.9015 4.11439 -2.30792 -0.0201038 -0.0109135 -0.000574394 -14.145 0.00689273 0.0333149c3.38663,-0.523848 6.29364,-1.82485 9.15183,-3.60949l0.148768 -0.0947751 -1.24356 7.85484 17.8487 2.96732 3.42799 -1.9179 2.185 4.19308 3.22982 -1.84381 0.643322 5.52682 20.2767 3.73471 4.05235 -2.31366 -0.0425052 -0.0275709 0.0551419 0.0103391 -0.780602 -5.146c1.39693,-0.164851 2.85302,-0.360145 4.1052,-0.823682 0.501446,-0.178062 1.19646,-0.466408 1.94892,-0.811045l-0.803003 7.41084 13.442 2.00981 0.129239 5.68765 13.948 4.61698 4.15115 -2.28494 -0.0114879 -0.00919031 0.0292941 0.00976471 18.264 -57.1775 -19.0176 -4.80136 -0.00689273 0.0304429 -2.97996 1.64909 -0.48881 -2.50896 -22.3468 -5.10924 0 -0.00114879 -4.1276 2.31366 0.138429 11.7515c-2.32343,-0.0557163 -4.71865,0.365315 -7.0461,1.2786 -1.63358,0.649066 -3.15055,1.50319 -4.5268,2.54055l-3.37055 -22.1056 -14.7878 0 -0.00344637 -0.0166574 -0.0292941 0.0166574 -0.0419308 0 -0.00402076 0.0258478 -4.08337 2.28092 -0.0396332 0.234927 -11.925 0 -0.021827 0.139003 0.00172318 -0.160256 -4.05925 2.32055 -0.846657 5.34934c-3.63247,-3.53597 -8.36835,-5.47168 -13.531,-5.58311l13.2817 -7.41543 -9.26154 -14.3558 -0.0120623 0.0149343 0.0120623 -0.016083 -4.09371 2.19878 -16.8412 20.0602 2.96043 3.63419 -3.21431 1.77775 -13.7975 -12.7159 -0.00459516 0.00919031 -4.10118 2.31021 -0.787495 1.55087 0.0700761 -3.48083 -22.4307 7.44358 0.000574394 0.0120623 -4.13564 2.30447 0.588754 12.4598 3.86912 -1.0161 0.241246 2.76571c-3.26773,-0.481917 -6.75718,0.00229758 -10.0714,1.45666 -1.44001,0.651938 -2.78352,1.45322 -4.02076,2.38546 0.840913,-3.8651 0.641599,-7.67506 -0.776007,-11.0732 -1.67436,-4.01502 -4.621,-7.33329 -8.23337,-9.42696 -2.53193,-1.7519 -5.55095,-2.84383 -8.70897,-3.21546 -7.76122,-1.40899 -17.0813,0.03791 -26.255,4.09773 -3.3717,1.49457 -6.51765,3.18961 -9.35459,5.06673l-3.58709 2.36306 0.00344637 0.00459516 -3.39352 3.57963 11.7188 20.7069z"/>
   <g>
    <polygon id="_47843008" class="fil2" points="15.6281,55.0729 19.8953,51.0028 8.26094,33.6526 4.93807,37.0278 "/>
    <polygon id="_47842048" class="fil3" points="163.243,25.224 168.356,23.5743 167.719,20.6604 163.656,22.8454 "/>
    <polygon id="_47980120" class="fil4" points="117.415,25.4664 122.202,24.089 137.866,4.53255 133.867,6.60037 "/>
    <polygon id="_47979328" class="fil5" points="221.877,32.3947 225.915,30.243 224.762,40.3552 "/>
    <polygon id="_47978352" class="fil5" points="200.368,39.6148 204.949,37.3908 200.973,35.9071 196.779,38.879 "/>
    <polygon id="_47977144" class="fil6" points="73.6,39.8607 78.6093,37.8365 77.1102,25.9511 73.0251,28.1425 "/>
    <polygon id="_47976368" class="fil7" points="196.779,38.879 200.837,36.7992 202.111,30.9633 200.663,24.6455 196.631,26.8219 "/>
    <polygon id="_46787672" class="fil8" points="195.669,79.0884 202.767,77.6886 204.158,37.5212 200.109,39.6482 "/>
    <polygon id="_46786488" class="fil9" points="213.238,78.163 199.696,76.9735 195.669,79.0884 208.8,80.9787 208.927,86.3275 222.552,90.6699 226.607,88.5205 "/>
    <polygon id="_48332400" class="fil9" points="163.976,61.8692 144.6,65.1898 140.82,68.7814 158.257,71.5718 161.605,69.7682 163.74,73.7115 166.895,71.9774 167.523,77.1756 187.331,80.6881 191.29,78.5117 "/>
    <polygon id="_48332072" class="fil10" points="140.82,68.7814 144.833,66.6975 151.709,42.2427 151.949,23.0464 147.984,25.2286 "/>
    <polygon id="_48331280" class="fil5" points="124.931,26.8438 121.646,23.3181 117.415,25.4664 120.306,28.884 117.147,30.5664 117.413,31.6198 "/>
    <polygon id="_48330304" class="fil9" points="96.6413,64.3293 100.697,61.2638 132.963,78.1596 128.944,80.3302 "/>
    <polygon id="_48329328" class="fil5" points="94.782,30.0615 99.9544,28.4957 103.687,18.6041 99.677,20.7787 "/>
    <path id="_47479784" class="fil11" d="M55.2786 59.1276l-4.1299 2.83464c0,0 0.876526,4.60837 2.00636,7.81349 1.13615,3.21661 3.83983,5.80081 3.83983,5.80081 1.73697,1.69791 3.86625,2.93343 6.2408,3.62673 4.56816,1.31479 9.72392,0.457792 14.1496,-2.36421 1.1574,-0.732353 2.7278,-1.90527 3.69278,-2.83004 -4.34931,2.63934 -25.7995,-14.8814 -25.7995,-14.8814z"/>
    <polygon id="_47478992" class="fil5" points="81.5571,36.4126 77.6254,37.7371 73.6,39.8607 77.3796,38.9049 81.1482,80.4842 96.5471,78.2055 100.667,76.047 "/>
    <polygon id="_47477976" class="fil12" points="23.2647,48.9143 19.0188,51.4583 15.6281,55.0729 19.6495,53.3469 36.8549,92.3678 53.2004,87.0949 57.1919,84.4119 "/>
    <path id="_46844792" class="fil5" d="M190.166 71.7568l0.231481 1.91561c1.40784,-0.157958 2.88691,-0.340042 4.1523,-0.790941 1.47562,-0.504893 4.68131,-1.93284 5.89961,-2.98398 -0.456644,0.166 -7.96685,2.11262 -10.2834,1.85931z"/>
    <path id="_46907224" class="fil5" d="M132.336 61.7934l0.613453 3.0845c3.30851,-0.49283 6.14832,-1.71629 8.94045,-3.39467 1.7519,-1.04367 3.67555,-2.61752 4.28269,-3.0374 -0.428498,0.273412 -13.8366,3.34757 -13.8366,3.34757z"/>
    <g>
     <path id="_46907016" class="fil13" d="M41.3277 88.6681l-1.27745 -2.83808 -16.3128 -36.4086 -0.335446 -0.746713 -0.740969 0.342339 -0.495702 0.22746 -2.90356 1.42565c-0.428498,-0.717993 -1.1396,-1.92135 -1.63415,-2.75652l-6.5659 -11.0967 -1.71744 -2.89667 2.84096 -1.80015c2.68702,-1.71399 5.72154,-3.29702 9.02316,-4.70659 6.57337,-2.80017 13.2829,-4.28096 19.4007,-4.28096 2.01268,0 3.96045,0.162554 5.78932,0.480768 3.05003,0.347509 5.87031,1.34868 8.20006,2.90012 3.47221,1.94145 6.20576,4.953 7.74916,8.51597 1.26769,2.92769 1.51525,6.35682 0.709377,9.91462l-0.472727 2.08965 1.73582 -1.2585c1.17004,-0.848955 2.44118,-1.57442 3.77779,-2.15685 2.31136,-0.976471 4.70257,-1.47504 7.09779,-1.47504 2.26771,0 4.41192,0.448602 6.37348,1.33145l1.26539 0.566927 -0.127516 -1.38027 -0.55027 -5.96566 -0.0890311 -0.945453 -0.920754 0.238948 -2.76341 0.716844 -0.484789 -10.1576 20.244 -6.46768 -0.163702 7.89448 1.52444 0.391163 4.42111 -8.47289 13.2421 11.7441 0.551993 0.491682 0.538208 -0.506616c1.81451,-1.70538 3.96447,-3.07301 6.39071,-4.06614l1.01323 -0.414138 -0.694443 -0.846657 -2.38776 -2.91046 15.2031 -17.5236 7.96226 11.8802 -12.1875 6.55097 -2.70712 1.45609 3.07301 0.0649066c5.77783,0.121772 10.8945,2.56639 14.4047,6.88182l1.26941 1.56522 0.817363 1.00519 -1.35787 1.44173 -0.90582 0.962111 -3.04544 3.2482 -0.566353 0.603689 0.612304 0.552567 2.85474 2.56984 1.10399 0.992554 0.236076 -1.46471 1.09537 -6.77958 0.27973 -1.74042 0.00919031 0.00976471 0.287772 -1.77775 1.63473 -10.0088 14.5936 0 0.684678 0 0.115453 -0.674913 0.285474 -1.71342 13.1421 -0.000574394 3.18387 20.1073 0.207356 1.30215 1.06665 -0.774284c1.28952,-0.936837 2.71401,-1.70767 4.23616,-2.28954 2.02589,-0.764519 4.11094,-1.15511 6.19312,-1.15511 2.47851,0 4.88465,0.572671 6.96511,1.65426 0.0551419,0.0402076 0.133834,0.0919031 0.240097,0.134408l0.987958 0.396332 0.116602 -1.05918 0.237799 -2.19131 0.078692 -0.717993 -0.706505 -0.157384 -2.66519 -0.595647 -0.129813 -10.4821 20.3175 4.47224 1.52674 7.5418 1.57729 0.0315917 1.57442 -6.49066 16.9423 4.11956 -17.3145 52.1814 -12.3897 -3.89037 -0.0878824 -4.80653 -0.0126367 -0.688699 -0.683529 -0.0964983 -12.3621 -1.74444 0.699612 -6.2833 0.166 -1.49515 -1.33776 0.685253c-0.633557,0.32281 -1.24701,0.593924 -1.82657,0.807024 -2.02129,0.764519 -4.09141,1.15109 -6.15291,1.15109 -0.596221,0 -1.19531,-0.0327405 -1.77833,-0.0987958l-1.05574 -0.118325 0.164851 1.04884 0.870208 5.52625 -18.0366 -3.181 -0.944879 -8.2012 -0.303855 -2.62843 -1.21542 2.34927 -2.07644 4.00468 -3.82317 -7.05816 -1.14936 -2.11952 -0.363017 2.38201 -0.832872 5.46307 -15.8079 -2.48828 1.22576 -7.49757 0.27973 -1.71916 -1.494 0.893183c-2.58765,1.55087 -5.55956,2.71803 -9.08175,3.56871 -1.23093,0.300408 -2.51757,0.508339 -3.82662,0.6169l-0.741543 0.0620346 0 0.744415 0 14.1491 -31.1316 -15.3857 -1.17004 -0.576692 0.00114879 1.30388 0.021827 13.1588 -13.9193 2.05174 -0.584734 -6.31949 -0.158533 -1.69044 -1.21312 1.18957c-1.83921,1.80015 -3.91163,3.19536 -6.15751,4.14828 -2.29758,0.977045 -4.66868,1.47102 -7.04437,1.47102 -2.37282,0 -4.60205,-0.495702 -6.62679,-1.46585 -3.75137,-1.80417 -6.45677,-5.07822 -7.61819,-9.20869 -0.552567,-1.94088 -0.703059,-3.98974 -0.44573,-6.0926l0.274561 -2.24014 -1.63358 1.55546c-1.15224,1.09307 -2.3935,2.13732 -3.69106,3.09656l-0.439986 0.324533 0.138429 0.529017 4.68936 17.9981 0.828277 3.19363 -3.13964 0.998298 -8.82844 2.8266 -2.95411 0.951772 0 0zm3.96275 -48.3169c-0.455495,0 -0.925349,0.0419308 -1.39922,0.126941l-0.601391 0.116028 -0.886865 0.170595 0.267093 0.863889 0.174616 0.561758 2.52446 8.26037 0.252159 0.794388 0.37508 1.19072 0.933391 -0.83 0.619772 -0.551993c2.44692,-2.19936 3.30449,-4.43203 2.78811,-7.24828 -0.325107,-1.68987 -1.63358,-2.53136 -2.38546,-2.88346 -0.785772,-0.3791 -1.6847,-0.570948 -2.66174,-0.570948l0 0zm67.6757 0.271114l-1.57786 1.53651 -4.15517 4.03799 -0.904671 0.879398 1.17751 0.45492 4.45673 1.72031 1.36936 0.52672 -0.282602 -1.43771c-0.368187,-1.85817 -0.464111,-3.71748 -0.291792,-5.52625l0.208505 -2.19189 0 0zm18.1474 -4.59286c-1.72376,0 -3.39122,0.741543 -4.5762,2.03221 -1.79728,1.96271 -2.14651,4.85765 -0.868484,7.20233l0.338893 0.635855 0.544526 1.0161 0.767391 -0.85872 0.49283 -0.546824 6.09605 -6.95994 0.479045 -0.550844 0.769114 -0.883993 -1.09709 -0.406097 -0.683529 -0.252159c-0.716844,-0.281453 -1.48481,-0.427924 -2.26254,-0.427924l0 0z"/>
    </g>
    <path id="_46905576" class="fil14" d="M140.439 46.3387c-0.0591626,0.0516955 -0.113156,0.117176 -0.159107,0.184955 0.0614602,-0.0562907 0.120623,-0.10454 0.183806,-0.15681l-0.024699 -0.0281453z"/>
    <polygon id="_46926064" class="fil14" points="146.615,45.9619 147.131,42.7694 148.55,44.0394 145.695,41.4707 148.739,38.2225 147.697,39.3282 147.728,39.1886 146.807,40.1605 143.765,43.3984 "/>
    <polygon id="_46925856" class="fil14" points="148.55,44.0394 149.644,37.2604 148.739,38.2225 145.695,41.4707 "/>
    <polygon id="_46925064" class="fil14" points="107.796,46.7747 107.843,46.7942 "/>
    <path id="_46924008" class="fil15" d="M124.652 49.5938c0.243543,0.246415 0.0183806,0.0695017 0.291218,0.25618l1.86219 -1.31307c-0.276284,-0.195294 -0.55027,-0.405522 -0.801855,-0.639875 -2.70195,-2.46243 -2.00004,-8.00017 -0.24699,-11.0312 -4.61411,3.72265 -4.37459,9.45338 -1.10456,12.728z"/>
    <path id="_46529632" class="fil15" d="M147.131 52.6944c-3.07531,2.54399 -6.58141,4.20284 -11.2128,5.32234 -1.01266,0.232055 -2.00464,0.400353 -2.97536,0.485938 -7.35225,0.722588 -13.5201,-2.6537 -15.8608,-8.12883 -0.291792,-0.663426 -0.516381,-1.33432 -0.686401,-2.05059 -1.08273,-4.61181 -0.157958,-8.73252 2.12009,-11.9629 0.225737,-0.313045 0.462962,-0.612304 0.711675,-0.917308 -0.116602,0.0993702 -0.235502,0.184381 -0.332574,0.278007 -0.875377,0.779453 -1.65081,1.63358 -2.30907,2.56697 -2.28092,3.23039 -3.2057,7.35397 -2.1132,11.9583 0.167149,0.71627 0.388291,1.39693 0.673765,2.04484 2.34181,5.48834 8.51138,8.86233 15.8573,8.14549 0.978194,-0.0942007 1.96673,-0.25618 2.97996,-0.500872 4.63766,-1.11892 8.14089,-2.77088 11.2162,-5.3143 0.751308,-0.618048 1.47562,-1.29181 2.17868,-2.02876l-0.0649066 -0.0620346c-0.0695017,0.0608858 -0.121772,0.113156 -0.182657,0.163702z"/>
    <polygon id="_46528960" class="fil15" points="103.533,27.2114 103.2,26.9035 95.2742,38.0358 95.319,38.7538 "/>
    <polygon id="_46528032" class="fil15" points="147.728,39.1886 147.697,39.3282 148.739,38.2225 149.644,37.2604 148.55,44.0394 147.131,42.7694 146.615,45.9619 143.765,43.3984 146.807,40.1605 "/>
    <polygon id="_46527056" class="fil15" points="142.369,17.0136 137.112,10.2662 135.389,12.6723 139.493,18.2474 "/>
    <path id="_47315792" class="fil15" d="M59.8582 34.964c-13.2766,-16.1732 -37.1989,-7.48034 -45.797,0.0855848l0.335446 0.580138c1.97707,-1.13385 4.06154,-2.15972 6.25458,-3.0799 8.5401,-3.64798 16.6827,-4.71693 23.2107,-3.57503 2.30734,0.264796 4.75197,0.949474 6.87895,2.37282 2.94492,1.64909 5.17702,3.99491 6.48147,7.00129 2.31538,5.32464 0.275709,12.4046 -5.17759,18.3312 6.83989,-6.27583 11.5201,-12.2817 7.81349,-21.7161z"/>
    <path id="_47314488" class="fil15" d="M86.9444 53.8064c-0.0620346,-0.292941 -0.124069,-0.591052 -0.219419,-0.878249 -0.747862,-2.68874 -2.35387,-4.83525 -4.4596,-6.26377 -3.40788,-2.31481 -8.16559,-2.78983 -12.9072,-0.788644 -2.49402,1.07814 -4.66293,2.73814 -6.3775,4.7198 1.31824,-1.13385 2.82487,-2.07873 4.45213,-2.78294 4.73071,-2.00808 9.48842,-1.53306 12.9078,0.778879 2.10573,1.43024 3.69853,3.57618 4.4619,6.26147 0.084436,0.287772 0.150491,0.589903 0.216547,0.893183 0.202187,1.02242 0.296962,2.05576 0.257329,3.11437 -0.0987958,3.09541 -1.24586,6.2115 -3.15457,8.87325 -0.307301,0.421031 -0.63126,0.814491 -0.966131,1.20336 1.08618,-0.937412 2.05576,-1.97534 2.88461,-3.13677 1.91618,-2.64451 3.06095,-5.76692 3.16262,-8.88129 0.0430796,-1.03851 -0.0430796,-2.08965 -0.258478,-3.11264z"/>
    <path id="_47566208" class="fil15" d="M73.8717 49.8592c-0.018955,0.0292941 1.92652,-1.92709 1.90354,-1.92709 -2.43256,-0.0924775 -3.4613,2.20165 -3.54574,2.38201 0.499723,-0.24182 1.05114,-0.399204 1.64219,-0.45492z"/>
    <path id="_47565536" class="fil15" d="M78.4537 52.6634c0.0987958,0.329702 0.150491,0.657682 0.150491,1.01668 0,0.506616 -0.113156,0.993128 -0.318215,1.44116 0.389439,-0.203336 3.20225,-1.5681 2.11205,-4.45902 0.0585882,0.0890311 -2.0144,1.99257 -1.94433,2.00119z"/>
    <path id="_46916480" class="fil15" d="M67.3874 54.2722c0,-1.18957 2.03623,-4.07475 2.67093,-5.03744 -3.21603,2.04427 -4.6009,4.80366 -4.6009,6.97717 0,3.72322 3.27175,6.71812 7.18453,6.71812 1.8507,0 5.23963,-0.978768 7.45679,-4.56644 -1.162,0.763945 -4.11496,2.59397 -5.6641,2.59397 -3.91163,-0.000574394 -7.04725,-2.9409 -7.04725,-6.68538z"/>
    <polygon id="_46916152" class="fil15" points="94.9687,72.7517 97.3604,72.8884 96.8877,55.7076 94.9181,57.6801 "/>
    <polygon id="_46915160" class="fil15" points="93.4132,41.3863 95.3047,38.7354 94.9009,24.2492 81.1884,28.9868 81.2372,30.3257 92.5729,26.9506 "/>
    <polygon id="_47864200" class="fil15" points="104.807,24.383 103.533,27.2114 112.905,36.0157 115.456,34.1558 "/>
    <path id="_47863528" class="fil15" d="M113.837 52.3675l-12.5011 -4.13334 -1.8214 1.92365 12.454 4.98402c1.41244,2.66117 3.5532,4.94094 6.24826,6.60783 2.6089,1.59567 5.59058,2.55146 8.74803,2.85417l0 6.15119 1.93054 0.96326 0.610581 -9.24086 -15.6689 -10.1099z"/>
    <path id="_47862512" class="fil15" d="M133.912 50.6289c3.07014,-0.740394 4.84042,-2.34238 6.36487,-4.10462 -1.14362,0.938561 -6.87895,2.18844 -7.84221,2.5147l-1.88861 2.01153c0.86274,0.0763945 2.30619,-0.15681 3.36595,-0.421606z"/>
    <path id="_47634744" class="fil15" d="M128.328 29.3711c-5.66123,0.741543 -8.61132,5.49408 -9.09956,6.0725 2.0908,-1.76569 4.71118,-3.07703 7.66242,-3.77607 7.00531,-1.69389 13.1824,0.441709 17.0004,5.16151l2.36248 -1.99947c-3.78181,-4.63824 -10.9221,-7.14719 -17.9257,-5.45847z"/>
    <path id="_46798784" class="fil15" d="M147.315 52.5307c0.682955,-0.57382 1.89608,-1.15453 2.54112,-1.8306l-7.58028 -6.77326c-0.580713,0.693869 -1.10686,1.83806 -1.81509,2.44003l6.85425 6.16383z"/>
    <path id="_46798576" class="fil15" d="M186.217 70.6821c-7.95307,-6.53661 -7.47747,-20.5541 -3.57331,-25.0011l-3.50438 -21.9689 -7.66357 0.989107 -0.34119 1.93513 5.79851 0 3.07129 19.9326c-3.90761,4.46132 -5.79564,10.4385 -4.49004,15.9102 1.01093,4.22869 3.60835,7.65093 7.34708,9.6303 0.375654,0.206208 0.763945,0.385993 1.16143,0.556014l0.0499723 0.291792 2.28035 0.360145c0,-0.000574394 0.237225,-2.4452 -0.136131,-2.63532z"/>
    <polygon id="_46797584" class="fil15" points="166.636,42.998 168.576,41.0382 166.536,26.1361 155.649,26.9448 155.32,28.8811 164.061,28.8811 "/>
    <polygon id="_46811264" class="fil15" points="167.792,61.6406 168.491,63.5372 172.527,52.4342 170.614,54.3498 "/>
    <polygon id="_46810408" class="fil15" points="160.289,51.6984 158.207,64.8658 160.201,65.628 162.233,49.7575 "/>
    <path id="_47499200" class="fil15" d="M201.492 45.5512c1.14362,0.817363 2.11952,1.85127 2.85417,3.08048 0.579564,0.942581 1.01725,1.99889 1.29756,3.15802 0.952346,3.95815 -0.186678,8.23911 -2.7031,11.674 -0.253308,0.348657 -0.532464,0.685253 -0.798983,1.0161 1.02242,-0.879398 13.438,-10.0375 1.30732,-22.0659 -13.342,-4.39814 -18.3927,4.30681 -18.8648,4.8588 1.40956,-1.19876 3.03625,-2.18959 4.79792,-2.86336 4.51589,-1.70997 8.95883,-1.11777 12.11,1.1419z"/>
    <path id="_47505824" class="fil15" d="M194.766 46.4191c0.0373356,0.0838616 1.91618,-1.95754 1.95409,-1.95754 -2.37397,0.0976471 -3.51472,1.24356 -3.39697,1.77258 -0.14245,0.205059 -0.257903,0.408969 -0.348657,0.633557 0.506616,-0.252159 1.44345,-0.446304 1.79154,-0.448602z"/>
    <path id="_47604792" class="fil15" d="M199.23 49.4031c0.0855848,0.31764 0.126367,0.651363 0.119474,1.00979 -0.0212526,0.458367 -0.140152,0.878824 -0.314768,1.27113 0.36072,-0.162554 3.23844,-1.05574 2.13962,-4.22237 0.0281453,0.0896055 -1.97534,1.94318 -1.94433,1.94145z"/>
    <path id="_47603752" class="fil15" d="M192.927 59.4561c2.68529,0.114879 5.65491,-1.53478 7.78477,-4.45041 -5.46536,1.12064 -11.2099,-7.98006 -10.6338,-8.87037 -2.06495,1.49687 -3.89267,4.38378 -3.97596,6.40163 -0.14245,3.74161 2.90356,6.76292 6.82496,6.91916z"/>
    <polygon id="_47594352" class="fil15" points="228.089,34.4005 227.942,37.149 237.38,39.2432 222.875,83.1671 224.156,84.0241 239.789,37.1042 "/>
    <polygon id="_47625728" class="fil15" points="221.64,57.2039 223.578,55.2504 219.016,32.3028 204.308,29.3711 204.411,31.9915 216.851,34.4901 "/>
    <polygon id="_47625336" class="fil15" points="210.457,74.6253 212.429,75.2641 215.829,53.3469 213.882,55.2544 "/>
    <polygon id="_47624360" class="fil15" points="46.6265,60.6371 44.4966,62.1265 49.8896,82.3371 52.4451,81.7329 "/>
    <path id="_46921032" class="fil15" d="M50.9344 50.0102c-1.34179,1.42392 -4.31715,4.19136 -6.01219,5.28271l-1.02931 -3.30507 -2.25392 -7.24599 -1.43311 -4.9059 -1.39808 1.79498 1.42737 4.9128 2.25392 7.24082 1.02529 3.31483c2.32055,-1.49572 5.69684,-4.30164 7.42003,-7.08918z"/>
    <path id="_47623576" class="fil14" d="M133.381 37.5367c-1.83634,-0.706505 -4.4372,-0.494554 -5.84159,1.04253 -0.326256,0.356699 -0.960388,1.26597 -1.16143,1.67206 1.35902,-1.08044 3.77952,-1.31479 5.36599,-0.742118l1.63702 -1.97247z"/>
    <path id="_47623368" class="fil14" d="M49.2555 44.0825c-0.206208,-1.08446 -1.26826,-1.94605 -1.78924,-2.185 -0.931668,-0.449751 -2.54342,-0.519827 -3.71978,-0.305578 0.211377,0.73063 0.453772,1.58705 0.557163,1.93858 0.477322,0.0666298 1.26137,0.20908 1.67264,0.396332 0.516381,0.249287 1.41933,0.835744 1.62956,1.92709 0.280879,1.45724 0.206782,2.81913 -0.400353,3.92426 1.66517,-1.63358 2.47334,-3.41075 2.05001,-5.6957z"/>
    <g>
     <g>
      <path id="_46547768" class="fil16" d="M52.1711 44.052c-0.799557,-4.28843 -6.40622,-6.65149 -11.9658,-3.61983l1.43311 4.90763 2.2545 7.25288 1.02817 3.30277c4.17068,-2.68185 8.36318,-5.9042 7.25001,-11.8434zm-5.52165 6.59347c-0.607135,-1.98166 -1.93858,-6.25975 -1.93858,-6.25975 0.00631834,0.0195294 -0.262498,-0.91501 -0.580713,-1.98568 1.17866,-0.210803 2.31136,-0.125218 3.24246,0.32281 0.520976,0.247564 1.43656,0.826554 1.63645,1.92365 0.460664,2.46588 -0.370484,4.22582 -2.35961,5.99898z"/>
     </g>
    </g>
    <g>
     <g>
      <path id="_47620392" class="fil17" d="M136.291 37.2483c-3.10747,-2.85072 -7.93756,-2.62958 -10.7722,0.475599 -2.85187,3.09943 -2.62785,7.93239 0.484215,10.7716 0.253308,0.244692 0.527294,0.444581 0.802429,0.641024l10.0243 -11.3523c-0.176913,-0.184955 -0.354401,-0.368761 -0.538782,-0.53591zm-9.46487 7.98466c-0.980491,-1.79958 -0.781751,-4.08509 0.683529,-5.68708 1.41014,-1.53593 3.56986,-1.97304 5.41194,-1.26309l-6.09547 6.95017z"/>
     </g>
    </g>
    <polygon id="_47535496" class="fil18" points="149.685,36.0019 144.134,41.3507 149.408,46.0865 "/>
    <path id="_47635752" class="fil19" d="M201.159 47.4616c0.084436,0.33717 0.12809,0.670318 0.117176,1.02529 -0.0919031,2.12066 -2.0862,3.75826 -4.46304,3.64683 -2.37512,-0.081564 -4.24075,-1.88459 -4.14713,-4.00008 0.0798408,-1.98281 1.84668,-3.55263 4.02938,-3.65315 -0.414138,-0.0930519 -0.847232,-0.141875 -1.29871,-0.157958 -3.97596,-0.171744 -7.22588,2.64394 -7.36259,6.15004 -0.152789,3.74965 2.85244,6.80657 6.76522,6.9766 3.98113,0.159107 7.22933,-2.66691 7.38786,-6.39875 0.0459516,-1.29354 -0.336021,-2.53365 -1.02817,-3.58882z"/>
    <path id="_47636792" class="fil20" d="M80.541 51.7432c0,2.12985 -1.93686,3.83638 -4.30911,3.83638 -2.37857,0 -4.30853,-1.70767 -4.30853,-3.83638 0,-1.98453 1.69791,-3.62098 3.87372,-3.81111 -0.416436,-0.0758201 -0.850678,-0.119474 -1.29871,-0.119474 -3.97481,0 -7.111,2.94837 -7.111,6.45964 0,3.74678 3.13677,6.68538 7.04667,6.68538 3.97883,0 7.11215,-2.94033 7.11215,-6.68538 0,-1.29698 -0.428498,-2.51929 -1.16545,-3.52506 0.0999446,0.302706 0.160256,0.638727 0.160256,0.996z"/>
    <g>
     <g>
      <path id="_47619352" class="fil21" d="M225.889 30.2321l-1.76511 7.27585 -1.63013 -8.05588 -21.8304 -4.80538 0.152789 12.1387 3.28956 0.738097 -0.236651 2.18959c-0.0430796,-0.0172318 -0.0695017,-0.0430796 -0.0924775,-0.0620346 -4.0782,-2.15168 -9.1346,-2.37225 -13.8929,-0.574969 -1.59624,0.610581 -3.07818,1.41358 -4.42226,2.38948l-3.293 -20.7896 -14.5184 0 -0.400353 2.39006 -15.2806 0 -1.74501 10.6872 -1.26769 -1.56522c-3.70312,-4.5492 -9.07141,-7.05529 -15.0175,-7.17936l12.9744 -6.97372 -9.04729 -13.5011 -16.3455 18.835 2.82143 3.43947c-2.55606,1.04482 -4.78873,2.48483 -6.63828,4.2241l-14.0152 -12.4351 -4.90016 9.3925 0.188401 -9.02603 -21.912 7.00015 0.561758 11.7722 3.72839 -0.96728 0.550844 5.96624c-4.25971,-1.91273 -9.37986,-1.86563 -14.1284,0.140727 -1.40669,0.613453 -2.71918,1.36706 -3.92771,2.24358 0.821384,-3.63477 0.626664,-7.21784 -0.758201,-10.4138 -1.63588,-3.77607 -4.51417,-6.89675 -8.04325,-8.86578 -2.47334,-1.64794 -5.42228,-2.67438 -8.50736,-3.02419 -7.58201,-1.32513 -16.6867,0.0356125 -25.6479,3.85361 -3.29415,1.40554 -6.36716,3.00006 -9.13862,4.76518l-3.50381 2.22233 2.11549 3.57216 6.56533 11.0962c0,0 2.00923,3.39984 2.02244,3.39812l3.54976 -1.74501 0.495128 -0.22746 16.314 36.4103 1.57327 3.49979 3.64281 -1.17406 8.82672 -2.82717 3.86855 -1.2292 -1.02012 -3.93805 -4.68821 -17.9958c1.34868,-0.998298 2.60718,-2.05691 3.7686,-3.16549 -0.261924,2.15053 -0.124069,4.32749 0.468131,6.41082 1.22576,4.3631 4.08222,7.80889 8.04727,9.71818 4.28154,2.05806 9.50565,2.06322 14.3386,0.0137855 2.42394,-1.02874 4.57907,-2.52906 6.40622,-4.31485l0.665723 7.16672 15.4581 -2.27633 -0.0241246 -13.8601 32.2999 15.9636 -0.000574394 -15.4575c1.29583,-0.108561 2.61866,-0.312471 3.94839,-0.638727 3.55722,-0.859869 6.60209,-2.03853 9.30691,-3.65889l-1.35672 8.30172 17.4151 2.73986 0.955218 -6.26664 4.54863 8.40282 2.78064 -5.3568 1.01553 8.79628 19.7454 3.48083 -1.04712 -6.64287c2.7031,0.306152 5.55152,-0.0568651 8.30345,-1.0948 0.651363,-0.241246 1.29526,-0.534187 1.91158,-0.848955l-0.78692 7.06735 13.1416 1.85415 0.0976471 5.38954 13.7028 4.30107 17.8413 -53.7737 -18.5776 -4.51531zm-77.1492 7.99155l0.90582 -0.962685 -1.09422 6.77958 -2.85474 -2.57099 3.04314 -3.2459zm-11.5718 -27.6944l4.78413 6.4987 -13.6769 6.78015 -0.945453 -1.43541 9.83823 -11.8434zm-90.5682 50.113l5.45675 20.9378 -8.83189 2.82143 -18.1233 -40.4753c-0.985661,0.518678 -2.80649,1.38774 -4.47855,2.2074l-6.56246 -11.0864c2.60947,-1.66689 5.47226,-3.14366 8.51655,-4.4303 8.54412,-3.63362 16.6959,-4.71808 23.2159,-3.56584 2.30677,0.259626 4.74852,0.939135 6.88699,2.35904 2.93458,1.65253 5.17931,4.0041 6.47343,6.99957 3.1563,7.29481 -2.11664,17.7919 -12.5534,24.2326zm40.6057 -3.72667c-0.101668,3.11781 -1.24586,6.2408 -3.16262,8.88358 -1.82313,2.55548 -4.36999,4.66466 -7.36661,5.95475 -7.66185,3.24648 -15.3243,0 -17.3714,-7.27471 -1.98338,-7.03403 2.6313,-15.4076 10.0553,-18.6058 4.74105,-2.00176 9.49819,-1.52731 12.9066,0.788644 2.10458,1.42737 3.71059,3.57446 4.4596,6.26377 0.0942007,0.285474 0.156235,0.585308 0.219419,0.878249 0.214249,1.02529 0.300408,2.07644 0.259626,3.11149zm41.6896 14.8027l-32.0489 -16.0291 0.0568651 16.7947 -8.29081 1.13098 -0.577841 -6.92318c2.56008,-4.38895 3.49576,-9.56137 2.15972,-14.3047 -0.733502,-2.60718 -2.08792,-4.87029 -3.92886,-6.68365l-1.18957 -14.1146 -3.72265 0.965557 -0.164277 -3.56929 13.3139 -3.9639 0.816215 13.7315 9.80779 -13.7803 9.58837 9.13172 -13.4087 14.1261 12.5976 4.98345c1.40669,2.66691 3.55378,4.93233 6.24711,6.60209 2.60373,1.60716 5.58656,2.5572 8.74228,2.8691l0.00172318 9.0335 0 0zm-16.6408 -23.2228l-4.45788 -1.72031 4.15574 -4.03914c-0.178062,1.85472 -0.0861592,3.79273 0.302131,5.75945zm34.8772 4.19882c-3.07531,2.54399 -6.58141,4.20284 -11.2128,5.32234 -1.01266,0.232055 -2.00464,0.400353 -2.97536,0.485938 -7.35225,0.722588 -13.5201,-2.6537 -15.8608,-8.12883 -0.291792,-0.663426 -0.516381,-1.33432 -0.686401,-2.05059 -1.08273,-4.61181 -0.157958,-8.73367 2.12009,-11.9629 0.655958,-0.942581 1.43426,-1.80073 2.30907,-2.57444 2.14594,-1.91446 4.8858,-3.30679 8.00017,-4.05465 7.00417,-1.68872 13.172,0.448602 16.9527,5.08856l-13.3455 14.2053c0.904671,0.170595 2.34353,-0.0666298 3.40616,-0.320512 3.1787,-0.775433 4.9576,-2.46243 6.52397,-4.30107l5.33383 4.79849 1.61577 1.45954c-0.699612,0.724311 -1.43599,1.40784 -2.18098,2.03278zm28.3142 18.9579l-2.90299 -19.2313 -4.10577 10.6085 -6.14774 -13.2593 -0.0695017 0 -2.42911 15.3553 -10.2466 -1.78292 1.44116 -8.56882c0.386567,-0.363592 0.766817,-0.728332 1.14075,-1.11318l3.32115 -3.41994 -3.22752 -2.89035 3.42971 -20.4059 10.3374 0 2.58765 14.1267 2.89954 -16.3708 7.39475 -0.000574394 3.06842 19.9453c-3.90473,4.44811 -5.80138,10.4276 -4.49693,15.8975 1.00921,4.24075 3.61524,7.6561 7.3511,9.65098 0.376228,0.18955 0.765668,0.376803 1.16717,0.538782l0.391163 2.58535 -10.9037 -1.66517zm25.533 -6.26607c-1.12983,0.804152 -2.37282,1.48768 -3.71001,1.98109 -2.63934,1.00519 -5.26433,1.21427 -7.60269,0.749585 -1.63013,-0.322235 -3.11666,-0.957516 -4.4102,-1.8777 -2.05633,-1.48768 -3.57158,-3.68531 -4.23903,-6.44413 -0.778879,-3.31483 -0.0614602,-6.85425 1.72203,-9.95483 0.888588,-1.51525 2.02876,-2.93975 3.37859,-4.16723 1.50491,-1.34925 3.24992,-2.45439 5.19138,-3.2011 4.51819,-1.68527 8.97376,-1.10399 12.1111,1.15109 1.15338,0.817938 2.1109,1.85874 2.86565,3.06842 0.572097,0.955218 1.01668,2.00923 1.28607,3.15917 0.960962,3.97998 -0.183232,8.24313 -2.69448,11.678 -1.07527,1.46471 -2.38603,2.78007 -3.89842,3.85763zm23.0717 18.1262l-7.57741 -2.2568 -0.659979 -27.9345 -3.81111 21.5496 -8.26611 -1.31881 0.592201 -6.20461c5.39758,-4.56127 8.25864,-11.7556 6.69055,-18.2755 -0.688699,-2.88748 -2.17293,-5.40103 -4.26545,-7.31204l0.697889 -7.31779 -3.12585 -0.832298 0.20908 -3.90646 14.241 2.86278 4.78873 22.707 4.91107 -20.3583 10.8337 2.3935 -15.2582 46.2043z"/>
     </g>
    </g>
    <path id="_47560208" class="fil22" d="M234.305 80.3515l0.387142 0c0.452048,0 0.829426,-0.158533 0.829426,-0.586457 0,-0.285474 -0.224014,-0.587031 -0.829426,-0.587031 -0.172318,0 -0.294664,0.0206782 -0.387142,0.0361869l0 1.1373zm0 1.86965l-0.543952 0 0 -3.37514c0.27973,-0.0499723 0.549121,-0.0919031 0.953495,-0.0919031 0.514083,0 0.85355,0.113156 1.04712,0.262498 0.217696,0.149343 0.319363,0.373356 0.319363,0.697889 0,0.446304 -0.296962,0.711675 -0.656533,0.831149l0 0.0195294c0.296962,0.0557163 0.492256,0.321661 0.562332,0.823107 0.0775433,0.527869 0.164277,0.726035 0.210803,0.831149l-0.55946 -0.000574394c-0.0781176,-0.102817 -0.157958,-0.417585 -0.225737,-0.860443 -0.0832872,-0.427924 -0.303855,-0.589329 -0.734076,-0.589329l-0.36991 0 0 1.45207 -0.00344637 0 0 0zm0.565204 -4.32404c-1.33662,0 -2.43486,1.14649 -2.43486,2.56295 0,1.4423 1.09824,2.57099 2.44979,2.57099 1.33891,0.018955 2.42509,-1.12869 2.42509,-2.55835 0,-1.42737 -1.08618,-2.57386 -2.42509,-2.57386l-0.0149343 0.000574394 0 -0.00229758zm0.0172318 -0.473875c1.64794,0 2.97709,1.34696 2.97709,3.0351 0,1.71801 -1.328,3.04889 -2.9903,3.04889 -1.66402,0 -3.0127,-1.32972 -3.0127,-3.04889 0,-1.68815 1.34638,-3.0351 3.0127,-3.0351l0.0132111 0z"/>
   </g>
   <g>
    <path id="_47880768" class="fil22" d="M93.7889 130.246l-9.86925 -16.0434 -19.7144 5.19195 -11.5229 -22.3026 11.2754 -3.47221 7.9433 14.7573 2.69736 -0.831149 -4.57275 -12.2208 16.9624 -4.57505 2.43256 3.76573 0.821384 -4.36827 10.566 -1.45609 3.04142 3.72208 0.356125 -3.87142 18.5409 -1.42794c5.9088,-4.11956 15.5173,-3.01787 18.7379,0.0677785 6.05469,1.07584 15.8429,0.434242 18.1647,3.22695l0.784048 -1.75478c18.9711,1.99832 36.1248,5.62275 51.2837,11.0312l-11.1662 20.3864 -22.6489 -6.32064 -5.56818 17.457c-11.2369,-2.27173 -22.1544,-3.83523 -32.8875,-4.30624 -2.12583,0.956941 -5.70776,1.0454 -8.21671,0.043654 -12.8021,-0.0499723 -25.267,1.10513 -37.4402,3.30047z"/>
    <polygon id="_48503304" class="fil23" points="62.2873,96.3455 56.394,98.1433 66.2018,116.86 78.7053,112.885 76.6518,109.152 70.2674,111.093 "/>
    <polygon id="_47880672" class="fil23" points="90.4844,107.174 91.377,110.194 79.9373,112.586 73.8327,96.5126 85.239,93.3213 86.513,96.7958 80.031,98.5414 81.1924,101.724 87.5705,100.091 88.5688,103.307 82.3354,104.89 83.7484,108.666 "/>
    <path id="_48496184" class="fil23" d="M92.7532 109.945l5.06846 -0.568651 -0.03791 -3.65947 3.78583 -0.304429 1.85874 2.99489 5.25686 -0.434817 -9.10932 -16.6063 -6.5728 0.851253 -0.249862 17.7275zm4.86914 -7.05988l2.74101 -0.215972 -2.95583 -6.7813 0.214824 6.99727z"/>
    <polygon id="_47836808" class="fil23" points="109.52,107.743 114.834,107.476 114.204,100.047 120.695,99.7269 120.548,96.3857 113.852,96.7343 113.558,93.6119 120.375,93.1783 120.195,89.6142 107.669,90.5516 "/>
    <path id="_47515336" class="fil23" d="M134.306 99.4708l-2.20567 0.00229758 0.00402076 -3.42454 8.24199 -0.00172318 0.0746713 10.7527 -3.87889 -0.00516955 -0.0413564 -2.23497c-3.09886,4.648 -12.8257,3.81398 -12.8274,-3.35963l0.0212526 -8.73424c0,-4.27809 4.00812,-5.75256 8.04267,-5.75256 5.35451,-0.0183806 8.59007,1.08675 8.58777,7.0392l-6.2138 0.0120623 0 -1.56293c-0.0356125,-2.83923 -4.50153,-2.59052 -4.51934,0.139003l0.00172318 9.64293c0.00574394,2.67496 4.69855,2.42797 4.70429,-0.410692l0.00804152 -2.10171z"/>
    <path id="_48001208" class="fil23" d="M147.564 107.301l-5.35106 -0.426775 2.2792 -17.2014 8.47576 0.441135c7.52055,0.406671 6.24826,8.13055 2.55893,9.10071 2.55203,1.40669 1.5928,6.08399 1.62669,8.55963l-5.68134 -0.302706c0.711675,-6.67217 0.348083,-6.92375 -3.00351,-7.03116l-0.904671 6.86057zm2.02015 -14.1422l-0.496277 4.20399c4.82951,0.813343 5.19482,-4.36425 0.496277,-4.20399z"/>
    <polygon id="_48731216" class="fil23" points="171.525,106.426 171.039,109.899 159.005,107.813 162.521,91.0949 174.679,92.6096 174.144,96.1513 166.85,95.288 166.353,98.3088 173.047,99.1583 172.326,102.734 165.237,101.877 164.536,105.508 "/>
    <polygon id="_49047136" class="fil23" points="185.737,109.285 184.938,112.7 173.391,109.841 178.586,93.5855 190.133,95.8119 189.278,99.2904 182.3,97.8119 181.447,100.665 187.913,102.185 186.871,105.681 180.143,104.213 178.941,107.754 "/>
    <polygon id="_47529840" class="fil23" points="186.379,112.782 194.595,96.8682 199.449,98.5506 199.449,107.421 203.309,99.3697 208.048,100.979 199.486,116.88 194.729,115.387 194.716,106.929 191.011,114.453 "/>
    <polygon id="_48542280" class="fil23" points="91.5815,112.783 87.1046,113.609 95.7303,128.081 101.405,127.409 101.294,111.383 96.7028,111.938 96.8917,121.879 "/>
    <polygon id="_48938888" class="fil23" points="115.713,122.928 116.011,125.513 106.221,126.567 104.402,113.255 113.75,112.031 114.134,114.95 108.736,115.638 109.09,118.006 114.387,117.365 114.644,119.874 109.583,120.491 110.014,123.552 "/>
    <path id="_48743656" class="fil23" d="M121.483 124.949l-4.05522 0.238374 -1.01955 -13.1048 6.77556 -0.428498c5.49351,-0.473875 5.93407,5.42975 3.07129,6.56935 2.86048,0.4509 2.019,4.67615 2.77203,6.54695l-4.39642 0.100519c-0.291218,-5.19425 -0.856997,-5.33268 -3.47164,-5.1236l0.323958 5.20172zm-0.548547 -10.8026l0.19472 3.19306c3.818,0.380249 3.46015,-4.09141 -0.19472,-3.19306z"/>
    <path id="_47574624" class="fil23" d="M136.675 115.599l3.89267 -0.00631834c0.689848,-5.86284 -10.9612,-6.02023 -10.8118,-0.531889 0.149343,5.18391 6.63196,3.15113 6.5211,6.26262 -0.0740969,2.30275 -3.64855,2.10171 -3.18674,-1.0632l-3.6497 -0.0172318c-1.23725,6.4717 10.8055,6.88814 11.1777,0.845509 0.217696,-4.46477 -7.03806,-3.52161 -6.97717,-6.27813 -0.0976471,-1.70423 3.14711,-1.79154 3.03395,0.788644z"/>
    <polygon id="_48683136" class="fil23" points="142.58,111.705 146.85,111.744 145.662,125.154 141.421,124.991 "/>
    <path id="_47546056" class="fil23" d="M148.846 115.278l-1.12064 5.74969c-1.09307,6.9473 10.4425,7.24024 11.2891,2.34927l1.12007 -5.339c1.44001,-7.17017 -10.0818,-7.88988 -11.2886,-2.75997zm4.37689 0.110284c0.248138,-1.29009 2.82774,-0.871356 2.61235,0.356699l-1.16602 6.85999c-0.186104,1.66 -3.0104,1.24988 -2.68185,-0.471578l1.23552 -6.74511z"/>
    <polygon id="_48969760" class="fil23" points="159.608,126.319 163.335,113.295 167.425,114.182 168.762,120.681 170.476,114.453 174.345,115.202 170.649,128.596 165.904,127.262 164.952,120.609 163.233,127.147 "/>
   </g>
  </g>
 </g>
</svg>
